<?xml version="1.0" encoding="UTF-8" standalone="no"?>
<svg
   xmlns:dc="http://purl.org/dc/elements/1.1/"
   xmlns:cc="http://creativecommons.org/ns#"
   xmlns:rdf="http://www.w3.org/1999/02/22-rdf-syntax-ns#"
   xmlns:svg="http://www.w3.org/2000/svg"
   xmlns="http://www.w3.org/2000/svg"
   id="svg8"
   version="1.1"
   viewBox="0 0 234.50627 92.566187"
   height="92.566185mm"
   width="234.50627mm">
  <defs
     id="defs2" />
  <metadata
     id="metadata5">
    <rdf:RDF>
      <cc:Work
         rdf:about="">
        <dc:format>image/svg+xml</dc:format>
        <dc:type
           rdf:resource="http://purl.org/dc/dcmitype/StillImage" />
        <dc:title></dc:title>
      </cc:Work>
    </rdf:RDF>
  </metadata>
  <g
     transform="translate(-4.3407466,-229.57607)"
     id="layer1">
    <path
       style="fill:#030303;fill-opacity:1;stroke-width:0.352778"
       d="m 38.05235,301.74871 c -1.0997,-1.67836 -2.669769,-5.11306 -3.236909,-7.08112 -0.771917,-2.67865 -0.777857,-8.27717 -0.01192,-11.24909 1.027712,-3.98769 3.080872,-7.41297 6.203816,-10.34978 1.866414,-1.75517 5.825265,-4.28299 6.169128,-3.93912 0.09701,0.097 -0.666468,0.66082 -1.696625,1.25291 -3.34107,1.9203 -7.287236,6.67683 -8.622397,10.39305 -1.526262,4.24811 -1.974148,10.76083 -1.000584,14.5494 0.297173,1.15643 1.083099,3.25353 1.746501,4.66023 1.231776,2.6119 1.375974,3.17825 0.449005,1.76352 z m -7.849591,-15.17087 c 0.08592,-1.89276 0.419114,-4.35338 0.740431,-5.46805 0.74851,-2.59665 2.56213,-6.20118 4.072908,-8.09482 2.682296,-3.36206 8.134911,-6.53187 12.35613,-7.18308 1.227494,-0.18937 2.668369,-0.43324 3.201945,-0.54194 0.533577,-0.10869 0.970139,-0.0495 0.970139,0.13148 0,0.18101 -1.071562,0.50668 -2.38125,0.72372 -6.570395,1.08881 -12.042726,4.67509 -15.112277,9.90381 -1.780057,3.03216 -3.310407,7.46053 -3.340693,9.66694 -0.01118,0.8146 -0.165054,2.11609 -0.341941,2.89221 -0.241444,1.05936 -0.28267,0.55327 -0.165392,-2.03027 z m 36.337874,-20.63207 c -1.642516,-1.44358 -4.026959,-3.15296 -6.887937,-4.52849 -2.266597,-1.08976 -3.530983,-1.66945 -3.422243,-1.77819 0.221227,-0.22122 9.760127,4.22215 11.282378,5.25551 0.536504,0.3642 1.378235,1.05122 1.666348,1.60837 1.052047,2.03443 0.302393,2.02754 -2.638546,-0.5572 z m -34.575488,-3.27231 c -0.471936,-0.19913 0.19564,-0.30592 2.016142,-0.3225 3.181936,-0.029 6.438763,-1.00126 9.096358,-2.71555 0.48507,-0.31289 0.16757,0.0823 -0.705556,0.8783 -0.873125,0.79596 -2.143125,1.62263 -2.822222,1.83704 -1.574359,0.49708 -6.658811,0.71341 -7.584722,0.32271 z m -6.173612,-3.15412 -2.293055,-0.2464 2.293055,-0.0614 c 5.014236,-0.1342 10.221578,-1.5722 13.090173,-3.61481 1.905025,-1.3565 1.479734,-0.42906 -0.482671,1.05257 -3.283098,2.47877 -7.440729,3.42522 -12.607502,2.87001 z m -14.405949,-3.72287 c -1.4233451,-0.25783 -2.6933452,-0.58444 -2.8222219,-0.7258 -0.1288804,-0.14136 0.1625458,-0.14785 0.6476153,-0.0144 1.7913036,0.49276 10.5076166,0.65131 14.4646726,0.26313 5.043099,-0.49472 8.733966,-1.488 11.406717,-3.06976 1.132392,-0.67016 1.992372,-1.01865 1.911071,-0.77444 -0.0813,0.24422 -1.642801,1.20055 -3.47,2.12518 -2.650705,1.34136 -3.999562,1.78672 -6.673571,2.20345 -4.075709,0.63517 -11.937966,0.63144 -15.464283,-0.007 z m 42.275395,-10.63605 c -3.278382,-0.70632 -8.361441,-3.28153 -10.705003,-5.42341 -1.977613,-1.80743 -4.684593,-5.17773 -4.392934,-5.46939 0.08576,-0.0858 0.700073,0.57655 1.36513,1.47182 0.665057,0.89526 2.08232,2.34817 3.149473,3.22869 2.118787,1.74821 8.510955,4.95687 11.729862,5.88799 1.115659,0.32273 2.028472,0.65488 2.028472,0.73813 0,0.20885 -0.524958,0.13712 -3.175,-0.43383 z"
       id="path5297" />
    <path
       style="fill:#668fb4;stroke-width:0.352778"
       d="m 49.5569,248.40799 c -1.339244,-0.67 -2.908385,-1.71878 -3.486983,-2.33062 l -1.051994,-1.11244 1.650467,1.10386 c 0.907758,0.60712 2.495258,1.47282 3.527778,1.92378 1.032521,0.45095 2.274186,0.99225 2.759255,1.20288 l 0.881945,0.38296 -0.92274,0.0239 c -0.50751,0.0131 -2.018485,-0.5243 -3.357728,-1.1943 z"
       id="path5295" />
    <path
       style="fill:#3c70a0;stroke-width:0.352778"
       d="m 59.461684,308.8818 c -1.95816,-0.25971 -4.919101,-1.22706 -6.384459,-2.08581 -0.799984,-0.46882 -2.358598,-1.80024 -3.463594,-2.95871 -3.487709,-3.6565 -5.127565,-8.45137 -5.138879,-15.02588 -0.01933,-11.23552 6.054486,-18.88593 15.924873,-20.05852 2.520202,-0.2994 5.932562,0.28869 8.314003,1.43285 l 1.476113,0.45145 1.477048,-0.0899 c 0.873122,-0.0531 0.942512,-1.9651 0.942519,-2.21537 2.4e-5,-1.01524 -1.044233,-2.94371 -2.712569,-4.44369 -0.973999,-0.87571 -2.877888,-2.12363 -4.230865,-2.77315 -1.352973,-0.64952 -12.709397,-5.68703 -12.636968,-5.75946 0.240686,-0.24069 16.991633,7.4464 18.527092,8.58044 2.799547,2.06766 2.917445,2.48187 2.813542,9.88497 -0.06093,4.34147 -0.220106,6.54015 -0.479729,6.6265 -0.216397,0.072 -1.094011,-1.70841 -1.980809,-4.0184 l -1.592264,-4.14762 -2.252528,-1.24416 c 0.525323,0.29016 -2.304216,-1.31098 -5.680077,-1.31098 -3.24575,0 -4.312548,0.48401 -6.038915,1.44033 -2.176357,1.2056 -3.072473,2.38607 -4.244221,4.72493 -1.545855,3.08559 -1.81216,5.02526 -1.802388,13.12794 0.0074,6.12068 0.129071,8.02567 0.630428,9.86909 1.612604,5.92932 5.379869,9.17014 10.668244,9.17747 3.298723,0.005 5.665068,-1.12164 7.188119,-3.42103 1.318768,-1.99097 1.60062,-3.27732 1.607228,-7.33525 l 0.0052,-3.175 -2.204862,-0.3265 c -1.430489,-0.21183 -2.204861,-0.49061 -2.204861,-0.79375 0,-0.37224 1.434691,-0.46725 7.055558,-0.46725 5.620868,0 7.05556,0.095 7.05556,0.46725 0,0.30314 -0.774373,0.58192 -2.204863,0.79375 l -2.20488,0.3265 -0.187823,3.70417 c -0.214665,4.23358 -0.838902,5.82757 -3.038491,7.75884 -2.943314,2.58426 -8.222775,3.91777 -13.001468,3.28396 z m 2.502627,-49.45609 c -0.774993,-0.30395 -0.759809,-0.18699 -1.081179,-8.32977 -0.269124,-6.81904 -0.633032,-8.13722 -2.614436,-9.47026 -0.702053,-0.47231 -2.650936,-1.22331 -4.275067,-1.82913 -4.667925,-1.74119 -7.63638,-3.6667 -8.800546,-4.24813 -2.288575,-1.143 -8.053152,-5.37837 -8.413691,-5.96174 -0.122548,-0.19828 3.578503,2.4431 4.319604,2.95021 2.503848,1.71313 9.254417,5.28502 12.582572,6.23601 3.698801,1.05689 5.041107,1.64731 6.254606,2.75111 1.76263,1.60329 1.912461,2.3592 1.976861,9.97316 0.04474,5.29005 0.179571,7.26962 0.523349,7.68385 0.5109,0.61559 0.494856,0.62391 -0.472073,0.24469 z"
       id="path5293" />
    <path
       style="fill:#030303;fill-opacity:1;stroke-width:0.352778"
       d="m 49.5569,248.40799 c -1.339244,-0.67 -2.908385,-1.71878 -3.486983,-2.33062 l -1.051994,-1.11244 1.650467,1.10386 c 0.907758,0.60712 2.495258,1.47282 3.527778,1.92378 1.032521,0.45095 2.274186,0.99225 2.759255,1.20288 l 0.881945,0.38296 -0.92274,0.0239 c -0.50751,0.0131 -2.018485,-0.5243 -3.357728,-1.1943 z"
       id="path5291" />
    <path
       style="fill:#030303;stroke-width:0.352778"
       d="m 186.89179,321.77589 c -2.10702,-0.77557 -2.99861,-1.99337 -2.99861,-4.09576 0,-2.21394 0.82569,-3.15533 2.76755,-3.15533 1.71843,0 2.77399,0.99062 2.19946,2.06413 -0.93088,1.73937 0.16094,3.58032 2.1234,3.58032 1.79685,0 2.77021,-1.44328 4.65228,-6.89836 l 1.68852,-4.89406 -5.56908,-11.91136 -5.56907,-11.91135 -1.6757,-0.22955 c -1.07273,-0.14695 -1.67569,-0.4036 -1.67569,-0.71327 0,-0.3908 1.15198,-0.48372 5.99722,-0.48372 4.87739,0 5.99722,0.0913 5.99722,0.48911 0,0.30924 -0.58382,0.57667 -1.5875,0.72717 -0.87312,0.13094 -1.5875,0.38248 -1.5875,0.55899 0,0.29964 6.12239,13.70609 7.325,16.03985 l 0.54528,1.05818 0.61464,-1.76373 c 0.33805,-0.97006 1.64319,-4.7376 2.90032,-8.37233 l 2.28569,-6.60859 -2.07296,-0.58165 c -1.23531,-0.3466 -2.07297,-0.77668 -2.07297,-1.06432 0,-0.38157 0.88677,-0.48268 4.23334,-0.48268 3.47604,0 4.23333,0.0921 4.23333,0.51501 0,0.29544 -0.60338,0.69578 -1.4153,0.93904 -0.77842,0.23322 -1.55134,0.59678 -1.7176,0.80791 -0.16627,0.21113 -2.79413,7.68638 -5.83969,16.61165 -3.04557,8.92528 -5.9236,16.81924 -6.39562,17.54213 -0.47203,0.72289 -1.23533,1.56143 -1.69623,1.86342 -1.22381,0.80187 -4.02108,0.98336 -5.68973,0.36915 z m -65.76091,-13.84781 c -0.23864,-0.52375 -2.49988,-5.88156 -5.02499,-11.90625 -2.52511,-6.02468 -4.72852,-11.09671 -4.89647,-11.27117 -0.16795,-0.17446 -0.89571,-0.41316 -1.61724,-0.53044 -0.72154,-0.11729 -1.37784,-0.41111 -1.45845,-0.65294 -0.11321,-0.33964 1.22486,-0.4397 5.88005,-0.4397 4.87015,0 6.02662,0.0928 6.02662,0.48372 0,0.31408 -0.61859,0.56578 -1.76389,0.71771 -0.97014,0.12869 -1.76389,0.27119 -1.76389,0.31667 0,0.0455 1.65354,4.2072 3.67452,9.24827 3.20907,8.00456 3.71658,9.05386 4.00651,8.28363 4.87178,-12.94231 6.12554,-16.68549 5.68079,-16.96036 -0.26361,-0.16292 -1.23473,-0.47745 -2.15805,-0.69895 -1.01216,-0.24281 -1.67876,-0.59887 -1.67876,-0.89671 0,-0.39601 0.83957,-0.49398 4.23333,-0.49398 3.28539,0 4.23333,0.10497 4.23333,0.46878 0,0.25782 -0.66668,0.77376 -1.48152,1.14652 l -1.48153,0.67776 -3.80764,10.23055 c -2.0942,5.62681 -4.06002,10.90525 -4.36849,11.72986 -0.65712,1.75669 -1.58011,1.98268 -2.23423,0.54703 z m -28.881423,0.24463 c -2.21747,-0.46613 -4.90429,-2.05421 -6.45392,-3.81468 -2.48818,-2.82672 -3.62502,-7.50563 -2.80301,-11.53637 0.85236,-4.17959 3.20164,-7.1663 7.01943,-8.92401 1.64222,-0.75607 2.49744,-0.91225 4.98122,-0.90965 2.53763,0.003 3.33983,0.15763 5.218113,1.00805 3.08638,1.3974 5.46065,4.03455 6.41541,7.12571 1.63027,5.27819 0.39927,10.68333 -3.21658,14.12353 -2.54133,2.41788 -7.454253,3.70653 -11.160663,2.92742 z m 5.66547,-1.18716 c 1.49048,-0.63509 2.506193,-1.77596 3.499213,-3.93042 0.73947,-1.60433 0.81076,-2.25725 0.80842,-7.40394 -0.002,-5.1773 -0.0717,-5.79793 -0.8383,-7.49909 -1.508253,-3.34712 -3.709173,-4.59863 -7.454363,-4.23877 -2.19938,0.21134 -3.88223,1.461 -4.98602,3.70258 -0.74673,1.51645 -0.84144,2.25074 -0.94543,7.32973 -0.0731,3.57196 0.0343,6.16256 0.29263,7.05555 0.60863,2.10407 1.94982,3.9524 3.43805,4.73804 1.57414,0.831 4.53674,0.94897 6.1858,0.24632 z m 47.251203,1.18716 c -2.21747,-0.46613 -4.9043,-2.05421 -6.45393,-3.81468 -2.48817,-2.82672 -3.62502,-7.50563 -2.80301,-11.53637 0.85237,-4.17959 3.20164,-7.1663 7.01943,-8.92401 1.64222,-0.75607 2.49745,-0.91225 4.98123,-0.90965 2.53762,0.003 3.33982,0.15763 5.2181,1.00805 3.08638,1.3974 5.46066,4.03455 6.41542,7.12571 1.63027,5.27819 0.39927,10.68333 -3.21658,14.12353 -2.54134,2.41788 -7.45426,3.70653 -11.16066,2.92742 z m 5.66547,-1.18716 c 1.49048,-0.63509 2.50618,-1.77596 3.49921,-3.93042 0.73947,-1.60433 0.81076,-2.25725 0.80841,-7.40394 -0.002,-5.1773 -0.0717,-5.79793 -0.83829,-7.49909 -1.50826,-3.34712 -3.70918,-4.59863 -7.45436,-4.23877 -2.19939,0.21134 -3.88224,1.461 -4.98602,3.70258 -0.74673,1.51645 -0.84145,2.25074 -0.94543,7.32973 -0.0731,3.57196 0.0343,6.16256 0.29262,7.05555 0.60863,2.10407 1.94983,3.9524 3.43805,4.73804 1.57414,0.831 4.53674,0.94897 6.18581,0.24632 z m 12.95325,0.66009 c 0,-0.34948 0.34957,-0.52917 1.02948,-0.52917 2.26697,0 2.14552,0.64992 2.14552,-11.48141 v -11.05313 l -1.5875,-0.23807 c -1.00368,-0.1505 -1.5875,-0.41793 -1.5875,-0.72717 0,-0.38861 0.83362,-0.48911 4.05694,-0.48911 h 4.05695 v 1.79658 1.79658 l 1.79676,-1.61544 c 1.02312,-0.91987 2.40732,-1.77986 3.21474,-1.99727 4.22603,-1.13795 7.83737,2.17454 5.54623,5.08725 -0.55522,0.70585 -1.04335,0.92823 -2.02848,0.92412 -1.86638,-0.008 -2.36067,-0.4364 -2.23155,-1.93511 0.13737,-1.59451 -0.42948,-2.29612 -1.84298,-2.28108 -1.183,0.0126 -1.94987,0.54001 -3.48458,2.39658 l -0.97014,1.17359 v 9.10742 c 0,10.06397 -0.12864,9.53567 2.32191,9.53567 0.83669,0 1.20587,0.162 1.20587,0.52917 0,0.44899 -0.88195,0.52916 -5.82084,0.52916 -4.93889,0 -5.82083,-0.0802 -5.82083,-0.52916 z m 46.91945,0 c 0,-0.34948 0.34957,-0.52917 1.02947,-0.52917 2.26555,0 2.14553,0.63334 2.14553,-11.32155 v -10.89329 l -1.5875,-0.39974 c -0.92236,-0.23225 -1.5875,-0.6039 -1.5875,-0.88702 0,-0.38628 0.84092,-0.48729 4.05694,-0.48729 h 4.05694 v 2.72797 2.72797 l 1.54611,-1.76743 c 1.74461,-1.99436 4.26441,-3.49763 6.46366,-3.85612 2.06513,-0.33663 5.17526,0.38038 6.50562,1.4998 1.96034,1.64952 2.06517,2.29725 2.06517,12.76087 v 9.52961 l 0.79375,0.17254 c 0.43656,0.0949 1.17819,0.21699 1.64806,0.27131 0.46987,0.0543 0.91967,0.2972 0.99954,0.53973 0.11201,0.34013 -1.112,0.44097 -5.35223,0.44097 -4.65144,0 -5.49745,-0.0814 -5.49745,-0.52916 0,-0.32449 0.32997,-0.52917 0.85309,-0.52917 2.04503,0 1.96913,0.37584 1.96913,-9.75046 0,-10.00223 -0.1619,-11.10109 -1.80512,-12.25205 -1.11012,-0.77756 -3.57271,-0.72562 -5.21045,0.10989 -0.73865,0.37683 -2.16386,1.5833 -3.16713,2.68103 l -1.82413,1.99589 0.0944,8.51965 0.0944,8.51966 1.20668,0.17639 c 0.66368,0.097 1.27222,0.37483 1.35232,0.61736 0.11233,0.34014 -1.11137,0.44097 -5.35182,0.44097 -4.65144,0 -5.49745,-0.0814 -5.49745,-0.52916 z"
       id="path5289" />
    <path
       id="path5297-7"
       d="m 47.479363,257.65984 c -1.554914,-1.60073 -3.488582,-4.05023 -4.297035,-5.44333 -0.808454,-1.39311 -1.876203,-2.85251 -2.372779,-3.24311 -2.301987,-1.81075 -5.150333,-1.84223 -10.912945,-0.12063 -4.396151,1.31337 -9.66615,2.23126 -13.581944,2.36561 -2.929524,0.10052 -11.5689483,-0.6866 -11.9692843,-1.09049 -0.11085,-0.11184 1.782826,-0.0926 4.208173,0.0427 2.7384723,0.15282 5.6860293,0.0921 7.7773673,-0.16029 3.413326,-0.4119 10.062676,-1.99381 15.479944,-3.68276 3.268376,-1.01899 5.502132,-1.14471 7.523267,-0.42344 2.30402,0.82223 3.562867,2.08182 4.976514,4.97949 1.346193,2.7594 4.296101,7.4203 5.628344,8.89288 0.394959,0.43656 0.63922,0.79375 0.542801,0.79375 -0.09642,0 -1.447509,-1.30969 -3.002423,-2.91042 z"
       style="fill:#3c70a0;fill-opacity:1;stroke-width:0.352777" />
  </g>
</svg>
