<?xml version="1.0" encoding="utf-8"?>
<!-- Svg Vector Icons : http://www.onlinewebfonts.com/icon -->
<!DOCTYPE svg PUBLIC "-//W3C//DTD SVG 1.1//EN" "http://www.w3.org/Graphics/SVG/1.1/DTD/svg11.dtd">
<svg version="1.1" xmlns="http://www.w3.org/2000/svg" xmlns:xlink="http://www.w3.org/1999/xlink" x="0px" y="0px" viewBox="0 0 1000 1000" enable-background="new 0 0 1000 1000" xml:space="preserve">
<metadata> Svg Vector Icons : http://www.onlinewebfonts.com/icon </metadata>
<g><path fill="#075aa2" d="M840,254.3C743.8,339.7,628.4,484,493.7,687.1l-66.4,103.3C372,721.2,282.7,625,159.6,501.9l61.7-61.7l165,144.3c57.7-57.7,111.4-110,161-157c49.6-46.9,89.3-82.9,118.9-107.9c29.6-25,54.8-46.4,75.6-64.1c20.8-17.7,35.6-29,44.4-34l12.1-8.1c1.5,0,3.7,0.4,6.3,1.2c2.7,0.8,7.7,4.4,15,11C827.1,232,833.8,241.6,840,254.3L840,254.3z"/>
<!-- <path fill="#075aa2" d="M985.5,432.8h-78.3c3.6,21.9,5.5,44.3,5.5,67.2c0,227.9-184.7,412.6-412.6,412.6C272.1,912.6,87.4,727.9,87.4,500C87.4,272.1,272.1,87.4,500,87.4c55,0,107.5,10.8,155.5,30.4V35.2C605.6,18.5,553.4,10,500,10c-66.1,0-130.3,13-190.7,38.5c-58.4,24.7-110.7,60-155.7,105c-45,45-80.3,97.4-105,155.8C23,369.7,10,433.9,10,500c0,66.1,13,130.3,38.5,190.8c24.7,58.4,60,110.7,105,155.7c45,45,97.4,80.3,155.7,105C369.7,977,433.9,990,500,990c66.1,0,130.3-13,190.8-38.5c58.4-24.7,110.7-60,155.7-105c45-45,80.3-97.4,105-155.7C977.1,630.3,990,566.1,990,500C990,477.3,988.5,454.9,985.5,432.8L985.5,432.8z"/> -->
</g>
</svg>